<?xml version="1.0" standalone="no"?>
<!DOCTYPE svg PUBLIC "-//W3C//DTD SVG 20010904//EN"
 "http://www.w3.org/TR/2001/REC-SVG-20010904/DTD/svg10.dtd">
<svg version="1.0" xmlns="http://www.w3.org/2000/svg"
 width="512.000000pt" height="512.000000pt" viewBox="0 0 512.000000 512.000000"
 preserveAspectRatio="xMidYMid meet">

<g transform="translate(0.000000,512.000000) scale(0.100000,-0.100000)"
fill="#FFD700" stroke="none">
<path d="M2470 4818 c-121 -191 -408 -621 -485 -729 -64 -87 -65 -91 -38 -85
15 3 111 19 213 36 102 17 198 33 213 36 l29 6 -5 -754 c-3 -616 -7 -776 -20
-878 -36 -277 -49 -310 -132 -350 -43 -21 -56 -22 -145 -16 -449 29 -829 343
-947 782 -25 94 -27 111 -27 344 -1 206 2 255 17 310 25 93 78 194 143 275
124 155 200 292 252 456 32 100 66 295 60 350 -3 31 -5 29 -80 -69 -155 -202
-352 -386 -563 -528 -118 -78 -300 -175 -402 -215 -35 -13 -63 -26 -63 -29 0
-3 69 -40 154 -82 l154 -77 5 -458 c4 -415 6 -466 24 -548 67 -294 192 -525
398 -730 206 -207 433 -330 733 -398 93 -21 118 -22 597 -22 544 0 569 2 759
62 430 135 787 486 931 916 65 194 67 220 72 720 l5 458 154 77 c85 42 154 79
154 82 0 3 -28 16 -62 29 -103 40 -279 134 -400 214 -215 144 -410 325 -566
529 -75 98 -77 100 -80 69 -6 -55 28 -250 60 -350 53 -167 127 -301 247 -450
67 -83 103 -148 138 -246 28 -80 28 -81 28 -330 0 -224 -3 -259 -22 -336 -115
-454 -496 -775 -953 -805 -89 -6 -102 -5 -145 16 -83 40 -96 73 -132 350 -13
102 -17 262 -20 878 l-5 754 29 -6 c15 -3 111 -19 213 -36 102 -17 198 -33
213 -36 27 -6 26 -2 -38 85 -77 108 -364 538 -485 729 -46 72 -87 132 -90 132
-3 0 -44 -60 -90 -132z m-150 -3058 l0 -80 -80 0 -80 0 0 80 0 80 80 0 80 0 0
-80z m320 0 l0 -80 -80 0 -80 0 0 80 0 80 80 0 80 0 0 -80z m320 0 l0 -80 -80
0 -80 0 0 80 0 80 80 0 80 0 0 -80z"/>
<path d="M2189 1234 c-47 -106 -31 -225 43 -309 l40 -45 287 0 287 0 31 33
c56 58 78 113 78 197 0 56 -6 87 -22 123 l-22 47 -351 0 -351 0 -20 -46z"/>
<path d="M2320 480 l0 -240 240 0 240 0 0 240 0 240 -240 0 -240 0 0 -240z"/>
</g>
</svg>
